<?xml version="1.0" encoding="UTF-8" standalone="no"?>
<svg
   xmlns:dc="http://purl.org/dc/elements/1.1/"
   xmlns:cc="http://creativecommons.org/ns#"
   xmlns:rdf="http://www.w3.org/1999/02/22-rdf-syntax-ns#"
   xmlns:svg="http://www.w3.org/2000/svg"
   xmlns="http://www.w3.org/2000/svg"
   xmlns:sodipodi="http://sodipodi.sourceforge.net/DTD/sodipodi-0.dtd"
   xmlns:inkscape="http://www.inkscape.org/namespaces/inkscape"
   version="1.1"
   id="svg2"
   xml:space="preserve"
   width="545.01331"
   height="74.959999"
   viewBox="0 0 545.01331 74.959999"
   sodipodi:docname="logo.eps"><metadata
     id="metadata8"><rdf:RDF><cc:Work
         rdf:about=""><dc:format>image/svg+xml</dc:format><dc:type
           rdf:resource="http://purl.org/dc/dcmitype/StillImage" /></cc:Work></rdf:RDF></metadata><defs
     id="defs6" /><sodipodi:namedview
     pagecolor="#ffffff"
     bordercolor="#666666"
     borderopacity="1"
     objecttolerance="10"
     gridtolerance="10"
     guidetolerance="10"
     inkscape:pageopacity="0"
     inkscape:pageshadow="2"
     inkscape:window-width="640"
     inkscape:window-height="480"
     id="namedview4" /><g
     id="g10"
     inkscape:groupmode="layer"
     inkscape:label="ink_ext_XXXXXX"
     transform="matrix(1.3333333,0,0,-1.3333333,0,74.96)"><g
       id="g12"
       transform="scale(0.1)"><path
         d="M 1569.98,482.813 V 329.086 H 1395.71 V 482.813 H 1299.6 V 79.3164 h 96.11 V 241.543 h 174.27 V 79.3164 h 96.01 V 482.813 h -4.81 -91.2"
         style="fill:#153263;fill-opacity:1;fill-rule:nonzero;stroke:none"
         id="path14" /><path
         d="M 2018.07,482.813 1917.6,323.016 1817.18,482.813 h -113.3 L 1869.67,219.07 V 79.3164 h 96.01 V 219.07 l 165.85,263.743 h -8.87 -104.59"
         style="fill:#153263;fill-opacity:1;fill-rule:nonzero;stroke:none"
         id="path16" /><path
         d="M 2440.51,482.813 V 187.02 c 0,-11.239 -8.52,-20.321 -20.48,-20.321 h -153.94 v 316.114 h -96.01 V 79.3164 h 283.75 c 25.31,0 45.63,7.5078 60.36,22.2146 14.72,14.785 22.16,35.078 22.16,60.207 v 321.075 h -4.83 -91.01"
         style="fill:#153263;fill-opacity:1;fill-rule:nonzero;stroke:none"
         id="path18" /><path
         d="M 2909.23,482.813 H 2625.38 V 79.3164 h 96.02 V 395.43 h 154.12 c 12.33,0 20.3,-9.66 20.3,-20.172 V 79.3164 h 95.96 V 400.32 c 0,25.246 -7.53,45.489 -22.19,60.219 -14.83,14.832 -35.05,22.274 -60.36,22.274"
         style="fill:#153263;fill-opacity:1;fill-rule:nonzero;stroke:none"
         id="path20" /><path
         d="M 3351.1,374.559 V 187.586 c 0,-10.898 -7.96,-20.887 -20.5,-20.887 h -153.92 v 228.742 h 153.3 c 12.6,0 21.12,-8.816 21.12,-20.882 m 13.56,108.254 H 3080.78 V 79.3164 h 283.88 c 25.17,0 45.38,7.5078 60.16,22.2146 14.79,14.805 22.24,35.078 22.24,60.215 v 238.563 c 0,25.242 -7.45,45.5 -22.24,60.3 -14.78,14.762 -35.08,22.204 -60.16,22.204"
         style="fill:#153263;fill-opacity:1;fill-rule:nonzero;stroke:none"
         id="path22" /><path
         d="M 3802.18,395.441 V 291.504 h -174.41 v 83.418 c 0,9.965 7.69,20.519 20.45,20.519 z m -187.83,87.372 c -25.11,0 -45.56,-7.473 -60.22,-22.274 -14.88,-14.773 -22.15,-35.031 -22.15,-60.246 V 79.3164 h 95.79 V 204.148 h 174.41 V 79.3164 h 95.93 V 482.813 h -283.76"
         style="fill:#153263;fill-opacity:1;fill-rule:nonzero;stroke:none"
         id="path24" /><path
         d="m 3991.63,79.3164 h 95.96 V 482.813 h -95.96 V 79.3164"
         style="fill:#153263;fill-opacity:1;fill-rule:nonzero;stroke:none"
         id="path26" /><path
         d="m 347.738,497.801 c 11.438,2.211 18.969,2.199 21.723,-0.707 1.59,-1.84 2.086,-4.867 -0.059,-8.649 -1.214,-2.031 -2.492,-3.836 -4.781,-6.59 -97.113,-114.39 -170.973,-283.164 -191.969,-331.933 -1.648,-3.32 -3.16,-6.672 -4.461,-8.84 -1.878,-3.437 -4.515,-6.289 -9.179,-6.57 -2.668,-0.149 -6.055,0.449 -11.418,3.718 -64.4651,39.688 -102.7854,89.239 -102.7854,142.907 0,96.957 124.6834,180.285 302.9294,216.664 m 99.516,-72.961 c 9.184,21.187 24.91,66.547 61.172,84.574 10.953,5.434 24.418,8.035 36.609,8.402 2.637,0.082 4.664,0 5.391,0 101.375,0 195.648,-14.035 274.722,-38.144 0.547,-0.176 2.403,-0.883 2.926,-1.117 7.297,-2.391 11.059,-5.754 11.059,-9.922 0,-3.606 -1.938,-6.344 -4.516,-8.922 -1.156,-1.07 -2.808,-2.527 -5.012,-4.371 C 811.391,440.078 756.473,400.363 653.074,360.805 616.785,346.883 571.453,329.652 523.98,319.633 496.063,313.723 392.688,298.012 447.254,424.84 m 482.363,-3.59 c 1.942,3.434 4.543,6.254 9.266,6.57 2.609,0.176 6.086,-0.441 11.387,-3.746 64.53,-39.679 102.68,-89.207 102.68,-142.863 0,-96.953 -124.634,-180.254 -302.794,-216.7188 -11.41,-2.2461 -19.113,-2.1875 -21.664,0.7226 -1.797,1.7774 -2.226,4.9102 0,8.6993 1.188,1.9453 2.403,3.7422 4.75,6.5937 97.094,114.4332 171.004,283.1212 191.977,331.8792 1.621,3.359 3.183,6.66 4.398,8.863 M 652.293,137.93 c -9.18,-21.289 -24.941,-66.6019 -61.145,-84.6409 -10.945,-5.3985 -24.503,-8.0469 -36.668,-8.3985 -2.636,-0.0781 -4.632,0 -5.386,0 -101.348,0 -195.625,14.0547 -274.574,38.0977 -0.641,0.164 -2.497,0.918 -3.075,1.1211 -7.269,2.4531 -10.972,5.8203 -10.972,9.9336 0,3.7109 1.882,6.395 4.543,8.953 0.957,1.113 2.785,2.52 4.922,4.406 18.222,15.203 73.136,55.008 176.57,94.578 36.289,13.829 81.586,31.094 129.172,41.125 27.808,5.868 131.179,21.68 76.613,-105.175 M 548.977,0 c 303.136,0 548.863,125.801 548.863,281.094 0,155.234 -245.727,281.062 -548.863,281.062 C 245.789,562.156 0.00390625,436.328 0.00390625,281.094 0.00390625,125.801 245.789,0 548.977,0"
         style="fill:#153263;fill-opacity:1;fill-rule:nonzero;stroke:none"
         id="path28" /></g></g></svg>
